<?xml version="1.0" encoding="UTF-8"?>
<svg width="483px" height="65px" viewBox="0 0 483 65" version="1.1" xmlns="http://www.w3.org/2000/svg" xmlns:xlink="http://www.w3.org/1999/xlink">
    <title>AI智能材料技术应用平台</title>
    <defs>
        <linearGradient x1="50%" y1="0%" x2="50%" y2="100%" id="linearGradient-1">
            <stop stop-color="#626262" stop-opacity="0.248054558" offset="0%"></stop>
            <stop stop-color="#626262" offset="53.294618%"></stop>
            <stop stop-color="#333333" stop-opacity="0.453710596" offset="100%"></stop>
        </linearGradient>
    </defs>
    <g stroke="none" stroke-width="1" fill="none" fill-rule="evenodd">
        <g transform="translate(0.033347, 0.083810)">
            <g id="塑造">
                <path d="M66.710057,31.6121948 L85.7593981,31.6121948 L85.7593981,29.1494318 L66.710057,29.1494318 L66.710057,31.6121948 Z M59.8262418,24.0974238 L59.8262418,37.3649417 L92.6417595,37.3649417 L92.6417595,24.0974238 C92.6417595,23.7092551 92.3277354,23.395231 91.9395667,23.395231 L60.5284346,23.395231 C60.1417197,23.395231 59.8262418,23.7092551 59.8262418,24.0974238 L59.8262418,24.0974238 Z" id="Fill-3" fill="#333333"></path>
                <path d="M92.6420502,12.7123059 L80.470709,12.7123059 L80.470709,15.166346 L80.4837934,15.166346 L80.4837934,15.1779765 L91.9398575,15.1779765 C92.3280262,15.1779765 92.6420502,15.4920006 92.6420502,15.8801693 L92.6420502,20.9321772 L59.8265326,20.9321772 L59.8265326,15.8801693 C59.8265326,15.4920006 60.1405567,15.1779765 60.5287253,15.1779765 L73.5999782,15.1779765 L73.5999782,12.7152135 L73.5999782,12.7123059 L73.4109822,12.7123059 L66.7103478,12.7050368 L61.774645,12.6977677 C60.6988217,12.6963139 59.8265326,11.8240248 59.8265326,10.7467477 L59.8265326,3.88764734 C59.8265326,3.49947867 60.1405567,3.18545458 60.5287253,3.18545458 L66.008155,3.18545458 C66.3963237,3.18545458 66.7103478,3.49947867 66.7103478,3.88764734 L66.7103478,6.96246658 L73.5999782,6.96246658 L73.5999782,3.88764734 C73.5999782,3.49947867 73.9154561,3.18545458 74.302171,3.18545458 L79.7670625,3.18545458 C80.1552311,3.18545458 80.470709,3.49947867 80.470709,3.88764734 L80.470709,6.9551975 L80.4837934,6.9551975 L80.4837934,6.96246658 L91.9398575,6.96246658 C92.3280262,6.96246658 92.6420502,7.27649067 92.6420502,7.66465934 L92.6420502,12.7123059 Z" id="Fill-5" fill="#333333"></path>
                <path d="M24.6639756,37.323508 L24.6639756,39.8269778 L41.6605296,39.8269778 C42.0486983,39.8269778 42.3627224,40.1424557 42.3627224,40.5291706 L42.3627224,45.5477408 L0,45.5477408 L0,40.5291706 C0,40.1424557 0.315477908,39.8269778 0.702192762,39.8269778 L17.783068,39.8269778 L17.783068,37.323508 L0,37.323508 L0,32.2569618 C0,31.870247 0.315477908,31.5547691 0.702192762,31.5547691 L17.783068,31.5547691 L17.783068,28.8986486 C17.783068,28.51048 18.0970921,28.1964559 18.4852608,28.1964559 L23.9617828,28.1964559 C24.3499515,28.1964559 24.6639756,28.51048 24.6639756,28.8986486 L24.6639756,31.5547691 L41.6605296,31.5547691 C42.0486983,31.5547691 42.3627224,31.870247 42.3627224,32.2569618 L42.3627224,37.323508 L24.6639756,37.323508 Z" id="Fill-6" fill="#333333"></path>
                <path d="M14.2258729,19.5990287 L15.8003548,19.5990287 L15.8003548,14.8843058 C15.8003548,14.4961372 16.1143789,14.1821131 16.5025476,14.1821131 L20.8639933,14.1821131 C21.2507082,14.1821131 21.5661861,14.4961372 21.5661861,14.8843058 L21.5661861,25.3372374 L14.2258729,25.3372374 L12.9843147,27.8087233 C12.8651018,28.0456952 12.6223147,28.1954382 12.3562665,28.1954382 L5.90132683,28.1954382 L7.33624248,25.3372374 L0.000290763048,25.3372374 L0.000290763048,14.8843058 C0.000290763048,14.4961372 0.314314855,14.1821131 0.702483525,14.1821131 L5.04793729,14.1821131 C5.43610596,14.1821131 5.75013005,14.4961372 5.75013005,14.8843058 L5.75013005,19.5990287 L7.33624248,19.5990287 L7.33624248,14.1821131 L7.33624248,11.5507075 L0.000290763048,11.5507075 L0.000290763048,6.52341438 C0.000290763048,6.13524571 0.314314855,5.82122161 0.702483525,5.82122161 L2.05162407,5.82122161 L2.05162407,3.81204895 C2.05162407,3.42388028 2.36710198,3.10985619 2.75527065,3.10985619 L6.81868425,3.10985619 C7.20685292,3.10985619 7.52087701,3.42388028 7.52087701,3.81204895 L7.52087701,5.82122161 L13.9874472,5.82122161 L13.9874472,3.81204895 C13.9874472,3.42388028 14.3014713,3.10985619 14.68964,3.10985619 L18.7530536,3.10985619 C19.1397684,3.10985619 19.4567002,3.42678791 19.4567002,3.81204895 L19.4567002,5.82122161 L20.8639933,5.82122161 C21.2507082,5.82122161 21.5661861,6.13524571 21.5661861,6.52341438 L21.5661861,11.5507075 L14.2258729,11.5507075 L14.2258729,19.5990287 Z" id="Fill-7" fill="#333333"></path>
                <path d="M57.1019374,3.3190602 L57.1019374,6.6381204 L53.7828772,6.6381204 L53.7799696,6.6381204 C53.4368692,6.6381204 53.1068531,6.58578305 52.7957367,6.48837743 C51.4451423,6.06822482 50.4652709,4.80922082 50.4652709,3.3190602 C50.4652709,1.82889958 51.4451423,0.569895575 52.7957367,0.14974297 C53.1068531,0.0523373487 53.4368692,0 53.7799696,0 L53.7828772,0 C54.1259776,0 54.4574475,0.0523373487 54.7671102,0.14974297 C56.1206121,0.56844176 57.1019374,1.82889958 57.1019374,3.3190602" id="Fill-8" fill="#E62129"></path>
                <path d="M36.6089578,13.3393364 L29.1436165,13.3393364 L29.1436165,11.0466697 C29.1436165,9.88216373 30.0871426,8.93863764 31.2501948,8.93863764 L35.906765,8.93863764 C36.2949337,8.93863764 36.6089578,9.25411555 36.6089578,9.64228422 L36.6089578,13.3393364 Z M31.3970301,3.11029233 C30.6148775,3.11029233 29.8574398,3.22368992 29.1436165,3.4315855 C25.8172872,4.40564171 23.3894158,7.47755332 23.3894158,11.1164529 L23.3894158,24.6354808 C23.3894158,25.0236495 23.7034399,25.3376736 24.0916085,25.3376736 L29.1436165,25.3376736 L29.1436165,19.0746375 L36.6089578,19.0746375 L36.6089578,25.3376736 L41.6609657,25.3376736 C42.0491344,25.3376736 42.3631585,25.0236495 42.3631585,24.6354808 L42.3631585,3.81248509 C42.3631585,3.42431642 42.0491344,3.11029233 41.6609657,3.11029233 L31.3970301,3.11029233 Z" id="Fill-9" fill="#E6212A"></path>
                <path d="M60.5290161,39.7567585 L91.9401482,39.7567585 C92.3268631,39.7567585 92.642341,40.0707826 92.642341,40.4589513 L92.642341,45.5109593 L59.8268233,45.5109593 L59.8268233,40.4589513 C59.8268233,40.0707826 60.1408474,39.7567585 60.5290161,39.7567585" id="Fill-10" fill="#333333"></path>
                <path d="M3.49497184,54.3519005 C3.24055418,54.5627037 3.11261843,54.8389286 3.11261843,55.1849367 C3.11261843,55.5309447 3.26817667,55.8057158 3.57929313,56.0092499 C3.8918634,56.2142378 4.61150195,56.4541174 5.73820876,56.7317961 C6.86636939,57.0094748 7.74156617,57.4267198 8.36525291,57.9806234 C8.98893965,58.5359808 9.30005611,59.3472097 9.30005611,60.4128563 C9.30005611,61.477049 8.90171073,62.3420691 8.10211235,63.0050088 C7.30251396,63.6679486 6.25140554,63.9994185 4.94878709,63.9994185 C3.17222486,63.9994185 1.56285139,63.3771855 0.120666665,62.1356273 C-0.0218072286,62.0135069 -0.0392530116,61.7925269 0.0785060231,61.6471454 L1.2299277,60.2369446 C1.34914055,60.0901093 1.56721283,60.0770249 1.71404817,60.1976916 C2.89163852,61.1688402 3.98781521,61.6529607 4.99967062,61.6529607 C5.48669873,61.6529607 5.86905214,61.5497398 6.14673085,61.3389366 C6.42440956,61.1295872 6.56397582,60.8446394 6.56397582,60.4884547 C6.56397582,60.1322699 6.41568667,59.848776 6.12056217,59.6394266 C5.82689149,59.4286234 5.24245777,59.2163663 4.37016862,59.0012017 C2.98759032,58.6726394 1.97573491,58.2452177 1.33605621,57.7174828 C0.694923686,57.1912017 0.375084333,56.3639808 0.375084333,55.2358202 C0.375084333,54.1076596 0.780698785,53.238278 1.59047388,52.6262218 C2.40170278,52.0156194 3.41210437,51.7088644 4.6260401,51.7088644 C5.41836941,51.7088644 6.21215253,51.845523 7.00593566,52.1159327 C7.68632119,52.3499969 8.29256214,52.6683825 8.82465852,53.0681817 C8.97004005,53.1786716 8.99766254,53.3909286 8.89298784,53.5406716 L7.93056215,54.9290652 C7.82297982,55.0846234 7.61217661,55.1151535 7.45516457,55.0075712 C6.51163847,54.3606234 5.54048989,54.0364226 4.540265,54.0364226 C4.09830517,54.0364226 3.74938951,54.1425511 3.49497184,54.3519005" id="Fill-11" fill="#333333"></path>
                <path d="M23.2719475,60.7405462 C23.724084,61.3017189 24.3332326,61.5823053 25.0979394,61.5823053 C25.8626463,61.5823053 26.4674334,61.3017189 26.9137547,60.7405462 C27.360076,60.1779197 27.5825097,59.4103053 27.5825097,58.4362491 L27.5825097,52.0685383 C27.5825097,51.8795423 27.7366141,51.7254379 27.9256101,51.7254379 L29.9522285,51.7254379 C30.1412245,51.7254379 30.2953289,51.8795423 30.2953289,52.0685383 L30.2953289,58.523478 C30.2953289,60.2855021 29.8083008,61.639004 28.8342446,62.583984 C27.8616422,63.52751 26.6157226,64 25.0979394,64 C23.5787025,64 22.3298752,63.5246024 21.3514576,62.5738072 C20.3715861,61.6244659 19.8816504,60.2738715 19.8816504,58.523478 L19.8816504,52.0685383 C19.8816504,51.8795423 20.0357548,51.7254379 20.2247508,51.7254379 L22.2513692,51.7254379 C22.4403652,51.7254379 22.5944696,51.8795423 22.5944696,52.0685383 L22.5944696,58.4362491 C22.5944696,59.4103053 22.819811,60.1779197 23.2719475,60.7405462" id="Fill-12" fill="#333333"></path>
                <path d="M40.4416509,63.6571904 L40.4416509,62.2586201 C40.4416509,62.1815679 40.4678196,62.1059695 40.5172493,62.0449093 L46.8050002,54.194307 L40.9926469,54.194307 C40.8036509,54.194307 40.6510003,54.0416563 40.6510003,53.8526604 L40.6510003,52.1894957 C40.6510003,52.0004997 40.8036509,51.8478491 40.9926469,51.8478491 L50.1647672,51.8478491 C50.3537632,51.8478491 50.5078676,52.0004997 50.5078676,52.1894957 L50.5078676,53.604058 C50.5078676,53.682564 50.4802451,53.7581624 50.4322692,53.8192226 L44.1619641,61.6349334 L50.2694419,61.6349334 C50.4584379,61.6349334 50.6110885,61.7890378 50.6110885,61.9780338 L50.6110885,63.6571904 C50.6110885,63.8461863 50.4584379,63.9988369 50.2694419,63.9988369 L40.7832975,63.9988369 C40.5943015,63.9988369 40.4416509,63.8461863 40.4416509,63.6571904" id="Fill-13" fill="#333333"></path>
                <path d="M65.9734088,55.4639238 L64.4439952,58.9923334 L67.4853767,58.9923334 L65.9734088,55.4639238 Z M69.5527019,63.7928313 L68.5117702,61.3751366 L63.4176016,61.3751366 L62.3766699,63.7928313 C62.3228787,63.9178594 62.1993044,63.9992731 62.0626458,63.9992731 L59.9226298,63.9992731 C59.676935,63.9992731 59.5112001,63.7477631 59.6086057,63.5209679 L64.563208,52.0532732 C64.6169992,51.9282451 64.7405735,51.8468315 64.8772321,51.8468315 L67.0521397,51.8468315 C67.1887984,51.8468315 67.3123726,51.9282451 67.3661638,52.0532732 L72.3207662,63.5209679 C72.4181718,63.7477631 72.2524368,63.9992731 72.0067421,63.9992731 L69.866726,63.9992731 C69.7300674,63.9992731 69.6064931,63.9178594 69.5527019,63.7928313 L69.5527019,63.7928313 Z" id="Fill-14" fill="#333333"></path>
                <path d="M89.9389716,57.8708603 C89.9389716,56.8124828 89.5987788,55.9082097 88.9198471,55.1594949 C88.2394615,54.4122339 87.4035178,54.0386033 86.4120158,54.0386033 C85.41906,54.0386033 84.58457,54.4122339 83.9041845,55.1594949 C83.223799,55.9082097 82.8836062,56.8124828 82.8836062,57.8708603 C82.8836062,58.9306916 83.223799,59.8320571 83.9041845,60.5735029 C84.58457,61.3164024 85.41906,61.6871253 86.4120158,61.6871253 C87.4035178,61.6871253 88.2394615,61.3164024 88.9198471,60.5735029 C89.5987788,59.8320571 89.9389716,58.9306916 89.9389716,57.8708603 M90.840337,62.2395751 C89.6394856,63.412804 88.1595017,63.9986916 86.4032929,63.9986916 C84.6456303,63.9986916 83.1671002,63.412804 81.9662488,62.2395751 C80.7639436,61.0678 80.1635179,59.6081695 80.1635179,57.8621374 C80.1635179,56.1175591 80.7639436,54.6579286 81.9662488,53.4861535 C83.1671002,52.3114708 84.6456303,51.7255833 86.4032929,51.7255833 C88.1595017,51.7255833 89.6394856,52.3114708 90.840337,53.4861535 C92.0411884,54.6579286 92.6416141,56.1175591 92.6416141,57.8621374 C92.6416141,59.6081695 92.0411884,61.0678 90.840337,62.2395751" id="Fill-15" fill="#333333"></path>
                <path d="M57.1019374,45.5109593 L50.2181223,45.5109593 L50.2181223,9.64097578 C50.2181223,9.25426093 50.5321464,8.93878302 50.920315,8.93878302 L56.3997447,8.93878302 C56.7879133,8.93878302 57.1019374,9.25426093 57.1019374,9.64097578 L57.1019374,45.5109593 Z" id="Fill-16" fill="#5D5DDF"></path>
            </g>
            <g id="AI智能材料技术应用平台" transform="translate(133.981307, 2.792190)" fill="#333333" fill-rule="nonzero">
                <path d="M8.736,3.776 L0,26.624 L4,26.624 L6.08,20.896 L15.648,20.896 L17.728,26.624 L21.728,26.624 L12.992,3.776 L8.736,3.776 Z M7.2,17.824 L10.816,7.808 L10.944,7.808 L14.528,17.824 L7.2,17.824 Z" id="形状"></path>
                <polygon id="路径" points="23.968 3.776 23.968 26.624 27.712 26.624 27.712 3.776"></polygon>
                <path d="M36.032,5.248 L38.624,5.248 C38.56,6.016 38.464,6.72 38.336,7.424 L34.176,7.424 C34.816,6.784 35.456,6.08 36.032,5.248 Z M37.376,10.464 C36.384,12.448 34.24,14.176 30.976,15.616 L33.216,18.336 C34.048,17.92 34.848,17.472 35.616,17.024 L35.616,30.048 L38.976,30.048 L38.976,28.864 L53.76,28.864 L53.76,30.048 L57.152,30.048 L57.152,16.256 L44.864,16.256 L46.752,14.368 C45.12,13.152 43.136,11.968 40.768,10.752 L40.864,10.464 L47.168,10.464 L47.168,7.424 L41.536,7.424 C41.632,6.72 41.696,6.016 41.76,5.248 L46.272,5.248 L46.272,2.336 L37.664,2.336 C37.92,1.824 38.144,1.248 38.368,0.672 L35.36,0 C34.24,2.368 32.96,4.192 31.488,5.472 L33.056,7.424 L31.648,7.424 L31.648,10.464 L37.376,10.464 Z M38.976,25.92 L38.976,24.064 L53.76,24.064 L53.76,25.92 L38.976,25.92 Z M38.976,21.184 L38.976,19.2 L53.76,19.2 L53.76,21.184 L38.976,21.184 Z M36.736,16.256 C37.952,15.328 38.944,14.304 39.68,13.216 C41.312,14.24 42.688,15.232 43.84,16.256 L36.736,16.256 Z M48.032,2.432 L48.032,14.688 L59.488,14.688 L59.488,2.432 L48.032,2.432 Z M56.224,11.776 L51.296,11.776 L51.296,5.376 L56.224,5.376 L56.224,11.776 Z" id="形状"></path>
                <path d="M68.256,19.264 L74.528,19.264 L74.528,21.344 L68.256,21.344 L68.256,19.264 Z M74.528,16.512 L68.256,16.512 L68.256,14.304 L74.528,14.304 L74.528,16.512 Z M68.256,24.096 L74.528,24.096 L74.528,25.568 C74.528,26.4 74.144,26.848 73.44,26.848 L71.2,26.688 L72.032,29.792 L74.496,29.792 C76.672,29.792 77.76,28.608 77.76,26.272 L77.76,11.424 L65.024,11.424 L65.024,30.016 L68.256,30.016 L68.256,24.096 Z M88.576,14.624 C89.76,14.624 90.656,14.368 91.232,13.888 C91.808,13.376 92.224,11.744 92.48,9.056 L89.376,8.032 C89.312,9.76 89.152,10.784 88.928,11.136 C88.704,11.456 88.384,11.616 87.936,11.616 L84.288,11.616 C83.52,11.616 83.168,11.072 83.168,10.048 L83.168,7.136 C86.528,6.624 89.504,6.08 92.128,5.504 L91.04,2.56 C88.992,3.104 86.368,3.616 83.168,4.128 L83.168,0.48 L79.872,0.48 L79.872,10.72 C79.872,13.312 81.024,14.624 83.36,14.624 L88.576,14.624 Z M83.168,22.048 C86.368,21.728 89.344,21.216 92.128,20.48 L91.04,17.504 C88.736,18.208 86.112,18.72 83.168,19.04 L83.168,15.68 L79.872,15.68 L79.872,26.432 C79.872,28.448 81.024,29.472 83.328,29.472 L88.576,29.472 C89.76,29.472 90.624,29.216 91.2,28.736 C91.776,28.224 92.224,26.624 92.48,23.904 L89.44,22.944 C89.344,24.672 89.184,25.696 88.928,26.048 C88.736,26.368 88.384,26.528 87.936,26.528 L84.256,26.528 C83.52,26.528 83.168,26.24 83.168,25.696 L83.168,22.048 Z M75.488,2.56 L72.928,4.192 C73.504,5.056 74.08,5.888 74.592,6.72 C72.224,6.976 69.984,7.2 67.872,7.328 C69.504,5.76 70.944,3.744 72.224,1.248 L69.024,0.288 C68.064,2.272 66.656,4.416 64.736,6.656 C64.32,7.04 63.808,7.296 63.232,7.488 L64.128,10.272 C68.704,10.016 72.672,9.6 76,9.088 C76.352,9.76 76.704,10.432 77.024,11.072 L79.776,9.12 C78.752,7.264 77.344,5.088 75.488,2.56 Z" id="形状"></path>
                <path d="M116.48,9.536 C114.304,15.04 110.912,19.552 106.24,23.104 L108.064,26.112 C112.224,22.56 115.424,18.176 117.632,12.96 L117.632,25.344 C117.632,26.176 117.28,26.592 116.608,26.592 C115.584,26.592 114.528,26.528 113.408,26.4 L114.176,29.632 L117.792,29.632 C119.904,29.632 120.96,28.48 120.96,26.208 L120.96,9.536 L124.256,9.536 L124.256,6.304 L120.96,6.304 L120.96,0.352 L117.632,0.352 L117.632,6.304 L108.8,6.304 L108.8,9.536 L116.48,9.536 Z M95.68,6.24 L95.68,9.472 L100.256,9.472 C99.104,13.056 97.344,16.256 94.976,19.04 L96.48,22.88 C98.08,20.448 99.392,17.76 100.448,14.816 L100.448,29.856 L103.776,29.856 L103.776,14.464 C104.576,15.552 105.504,16.864 106.56,18.432 L108.48,15.52 C106.912,13.792 105.344,12.256 103.776,10.848 L103.776,9.472 L107.68,9.472 L107.68,6.24 L103.776,6.24 L103.776,0.352 L100.448,0.352 L100.448,6.24 L95.68,6.24 Z" id="形状"></path>
                <path d="M130.336,2.976 L127.584,3.872 C128.352,5.92 128.96,8.096 129.44,10.336 L132,9.632 C131.52,7.136 130.976,4.896 130.336,2.976 Z M138.176,2.656 C138.016,5.152 137.632,7.392 137.024,9.312 L139.488,10.112 C140.256,8.064 140.768,5.696 140.96,3.04 L138.176,2.656 Z M127.52,11.264 L127.52,14.496 L132.64,14.496 C131.424,17.056 129.568,19.488 127.008,21.824 L128.416,25.312 C130.144,23.296 131.616,21.024 132.896,18.464 L132.896,29.888 L136.256,29.888 L136.256,18.208 C136.992,19.296 137.856,20.672 138.816,22.272 L140.8,19.296 C139.296,17.76 137.792,16.352 136.256,15.072 L136.256,14.496 L140.672,14.496 L140.672,11.264 L136.256,11.264 L136.256,0.448 L132.896,0.448 L132.896,11.264 L127.52,11.264 Z M150.112,0.48 L150.112,18.688 L140.96,20.064 L141.44,23.392 L150.112,22.08 L150.112,29.888 L153.408,29.888 L153.408,21.568 L156.896,21.056 L156.32,17.728 L153.408,18.176 L153.408,0.48 L150.112,0.48 Z M144.512,2.56 L142.304,4.704 C144.48,6.368 146.144,7.936 147.36,9.408 L149.632,7.136 C148.256,5.632 146.56,4.096 144.512,2.56 Z M143.744,10.08 L141.504,12.192 C143.648,13.92 145.312,15.52 146.496,17.024 L148.768,14.72 C147.392,13.184 145.728,11.616 143.744,10.08 Z" id="形状"></path>
                <path d="M163.104,29.6 C165.216,29.6 166.304,28.48 166.304,26.272 L166.304,17.632 C167.328,17.152 168.352,16.64 169.376,16.096 L169.376,12.832 C168.352,13.408 167.328,13.92 166.304,14.4 L166.304,9.088 L169.312,9.088 L169.312,5.856 L166.304,5.856 L166.304,0.384 L163.04,0.384 L163.04,5.856 L159.52,5.856 L159.52,9.088 L163.04,9.088 L163.04,15.712 C161.664,16.16 160.288,16.576 158.88,16.896 L159.744,20.192 C160.832,19.808 161.952,19.424 163.04,19.008 L163.04,25.44 C163.04,26.272 162.688,26.688 161.984,26.688 C161.216,26.688 160.448,26.624 159.648,26.496 L160.352,29.6 L163.104,29.6 Z M170.112,4.64 L170.112,7.808 L177.504,7.808 L177.504,12.128 L170.752,12.128 L170.752,15.264 L172.416,15.264 C173.248,18.304 174.88,21.056 177.312,23.52 C175.136,25.088 172.48,26.336 169.376,27.296 L170.944,30.112 C174.368,28.928 177.28,27.424 179.68,25.6 C181.728,27.2 184.288,28.672 187.328,30.016 L189.056,27.232 C186.304,26.144 183.936,24.928 182.016,23.552 C184.32,21.184 185.984,18.368 186.944,15.072 L186.944,12.128 L180.768,12.128 L180.768,7.808 L188.16,7.808 L188.16,4.64 L180.768,4.64 L180.768,0.448 L177.504,0.448 L177.504,4.64 L170.112,4.64 Z M175.552,15.264 L183.68,15.264 C182.752,17.664 181.376,19.776 179.584,21.568 C177.632,19.712 176.288,17.6 175.552,15.264 Z" id="形状"></path>
                <path d="M192.224,7.584 L192.224,10.752 L201.344,10.752 C199.168,16 195.744,20.288 191.104,23.68 L192.96,26.656 C198.176,22.624 201.952,17.504 204.288,11.296 L204.288,29.92 L207.616,29.92 L207.616,11.264 C209.728,16.896 213.344,21.984 218.4,26.592 L220.672,23.744 C215.904,19.904 212.544,15.584 210.56,10.752 L219.712,10.752 L219.712,7.584 L207.616,7.584 L207.616,0.256 L204.288,0.256 L204.288,7.584 L192.224,7.584 Z M212.832,0.288 L210.208,1.92 C211.936,3.84 213.28,5.568 214.304,7.104 L216.96,5.216 C216,3.808 214.624,2.176 212.832,0.288 Z" id="形状"></path>
                <path d="M228.96,25.504 L228.96,28.768 L251.84,28.768 L251.84,25.504 L245.728,25.504 C247.52,20.992 249.024,15.904 250.24,10.208 L246.912,9.28 C245.536,15.68 243.936,21.088 242.112,25.504 L228.96,25.504 Z M233.12,10.848 L230.24,11.808 C231.52,15.488 232.544,19.328 233.376,23.328 L236.544,22.496 C235.52,18.112 234.4,14.24 233.12,10.848 Z M239.232,8.512 L236.352,9.472 C237.44,13.28 238.304,17.248 239.008,21.344 L242.176,20.544 C241.312,16.032 240.32,12.032 239.232,8.512 Z M239.456,0.128 L235.712,0.768 C236.224,1.504 236.704,2.304 237.152,3.168 L225.6,3.168 L225.6,12.928 C225.536,19.136 224.704,24 223.104,27.488 L225.952,30.016 C227.872,25.728 228.896,20.032 228.992,12.928 L228.992,6.4 L252.32,6.4 L252.32,3.168 L240.864,3.168 C240.416,2.048 239.936,1.024 239.456,0.128 Z" id="形状"></path>
                <path d="M261.344,12.16 L268.384,12.16 L268.384,16.768 L261.344,16.768 L261.344,12.16 Z M261.184,19.84 L268.384,19.84 L268.384,28.864 L271.776,28.864 L271.776,19.84 L279.392,19.84 L279.392,24.288 C279.392,25.504 278.88,26.144 277.92,26.144 C276.832,26.144 275.68,26.08 274.4,25.952 L275.296,29.216 L278.976,29.216 C281.504,29.216 282.784,27.968 282.784,25.504 L282.784,1.344 L257.984,1.344 L257.984,17.184 C257.92,21.344 256.96,24.768 255.072,27.456 L257.632,29.76 C259.584,27.136 260.768,23.808 261.184,19.84 Z M279.392,16.768 L271.776,16.768 L271.776,12.16 L279.392,12.16 L279.392,16.768 Z M279.392,9.088 L271.776,9.088 L271.776,4.608 L279.392,4.608 L279.392,9.088 Z M268.384,4.608 L268.384,9.088 L261.344,9.088 L261.344,4.608 L268.384,4.608 Z" id="形状"></path>
                <path d="M288.928,1.472 L288.928,4.736 L300.128,4.736 L300.128,15.744 L287.648,15.744 L287.648,18.976 L300.128,18.976 L300.128,29.92 L303.52,29.92 L303.52,18.976 L316.256,18.976 L316.256,15.744 L303.52,15.744 L303.52,4.736 L315.072,4.736 L315.072,1.472 L288.928,1.472 Z M293.632,6.016 L290.528,7.52 C291.68,9.632 292.8,12.032 293.824,14.688 L296.96,13.152 C295.872,10.528 294.784,8.16 293.632,6.016 Z M310.56,5.888 C309.696,8.224 308.544,10.592 307.072,12.96 L310.08,14.496 C311.52,12.192 312.704,9.792 313.6,7.328 L310.56,5.888 Z" id="形状"></path>
                <path d="M344.992,16.288 L322.912,16.288 L322.912,30.016 L326.304,30.016 L326.304,28.8 L341.6,28.8 L341.6,30.016 L344.992,30.016 L344.992,16.288 Z M326.304,25.6 L326.304,19.488 L341.6,19.488 L341.6,25.6 L326.304,25.6 Z M320.896,13.44 C329.056,13.152 336.48,12.704 343.136,12.096 C343.872,13.312 344.608,14.56 345.312,15.872 L348.576,14.272 C346.272,10.4 343.872,6.88 341.312,3.68 L338.272,5.12 C339.264,6.368 340.256,7.712 341.216,9.12 C336.288,9.568 331.232,9.92 326.048,10.176 C328.672,7.744 331.2,4.8 333.664,1.408 L330.208,0.192 C325.856,6.56 322.528,9.92 320.288,10.272 L320.896,13.44 Z" id="形状"></path>
            </g>
            <g id="塑造助力工业之巅，科技创新之美！" transform="translate(134.245307, 45.782190)" fill="#333333" fill-rule="nonzero">
                <path d="M0.924,9.016 L0.924,10.248 L5.502,10.248 L5.502,11.382 L0,11.382 L0,12.6 L12.376,12.6 L12.376,11.382 L6.818,11.382 L6.818,10.248 L11.466,10.248 L11.466,9.016 L6.818,9.016 L6.818,8.218 C7.42,7.574 7.854,6.804 8.106,5.908 L10.668,5.908 L10.668,6.538 C10.668,6.902 10.542,7.084 10.304,7.084 C9.94,7.084 9.534,7.056 9.114,7.028 L9.436,8.218 L10.682,8.218 C11.508,8.218 11.928,7.798 11.928,6.972 L11.928,0.588 L7.112,0.588 L7.112,4.144 C7.084,5.46 6.65,6.538 5.81,7.392 L6.636,8.134 L5.502,8.134 L5.502,9.016 L0.924,9.016 Z M0.154,1.764 L0.154,2.926 L2.842,2.926 L2.842,4.13 C2.828,4.438 2.8,4.746 2.744,5.04 L1.708,5.04 L1.708,3.528 L0.56,3.528 L0.56,6.146 L2.352,6.146 L2.226,6.356 C1.848,6.888 1.134,7.336 0.084,7.686 L0.742,8.722 C1.89,8.344 2.73,7.812 3.234,7.126 C3.43,6.846 3.598,6.51 3.738,6.146 L6.202,6.146 L6.202,3.528 L5.04,3.528 L5.04,5.04 L4.004,5.04 C4.032,4.76 4.06,4.452 4.074,4.13 L4.074,2.926 L6.566,2.926 L6.566,1.764 L5.04,1.764 C5.278,1.372 5.502,0.938 5.698,0.462 L4.508,0.056 C4.298,0.658 4.046,1.232 3.752,1.764 L2.926,1.764 C2.632,1.176 2.324,0.616 2.002,0.112 L0.952,0.63 C1.176,0.966 1.4,1.344 1.624,1.764 L0.154,1.764 Z M8.344,3.85 L10.668,3.85 L10.668,4.858 L8.288,4.858 C8.316,4.606 8.344,4.34 8.344,4.06 L8.344,3.85 Z M10.668,2.8 L8.344,2.8 L8.344,1.764 L10.668,1.764 L10.668,2.8 Z" id="形状"></path>
                <path d="M16.092,0.21 L15.182,1.078 C16.19,1.918 16.96,2.702 17.52,3.43 L18.458,2.506 C17.814,1.75 17.016,0.98 16.092,0.21 Z M24.1,12.838 L27.334,12.838 L27.656,11.522 C27.264,11.55 26.718,11.578 26.018,11.592 C25.304,11.606 24.604,11.62 23.918,11.62 C22.826,11.62 21.888,11.606 21.104,11.592 C20.264,11.564 19.648,11.438 19.228,11.242 C18.892,11.06 18.556,10.78 18.22,10.402 C18.15,10.318 18.08,10.262 18.024,10.206 L18.024,4.9 L14.902,4.9 L14.902,6.132 L16.778,6.132 L16.778,10.094 C16.218,10.374 15.574,11.088 14.874,12.236 L15.854,13.146 C16.568,11.872 17.072,11.242 17.38,11.242 C17.534,11.242 17.716,11.354 17.912,11.592 C18.332,12.068 18.822,12.404 19.382,12.572 C19.956,12.712 20.698,12.796 21.608,12.81 C22.504,12.824 23.344,12.838 24.1,12.838 Z M20.796,2.968 L22.7,2.968 L22.7,4.466 L18.808,4.466 L18.808,5.684 L27.46,5.684 L27.46,4.466 L23.974,4.466 L23.974,2.968 L26.732,2.968 L26.732,1.736 L23.974,1.736 L23.974,0.168 L22.7,0.168 L22.7,1.736 L21.3,1.736 C21.412,1.428 21.51,1.092 21.608,0.742 L20.39,0.49 C20.11,1.61 19.634,2.646 18.962,3.598 L20.054,4.284 C20.32,3.878 20.572,3.444 20.796,2.968 Z M19.942,6.566 L19.942,10.696 L26.438,10.696 L26.438,6.566 L19.942,6.566 Z M25.164,9.478 L21.216,9.478 L21.216,7.784 L25.164,7.784 L25.164,9.478 Z" id="形状"></path>
                <path d="M35.53,0.924 L30.658,0.924 L30.658,10.542 C30.336,10.598 30.014,10.668 29.678,10.738 L30.042,12.012 C32.45,11.494 34.564,10.934 36.412,10.332 L36.412,9.072 C36.132,9.156 35.838,9.254 35.53,9.352 L35.53,0.924 Z M31.96,10.262 L31.96,8.036 L34.242,8.036 L34.242,9.716 C33.514,9.898 32.744,10.08 31.96,10.262 Z M31.96,6.846 L31.96,5.026 L34.242,5.026 L34.242,6.846 L31.96,6.846 Z M31.96,3.822 L31.96,2.142 L34.242,2.142 L34.242,3.822 L31.96,3.822 Z M37.826,0.224 L37.826,2.912 L36.23,2.912 L36.23,4.2 L37.826,4.2 L37.826,4.34 C37.798,7.994 36.93,10.64 35.222,12.278 L36.216,13.16 C38.12,11.298 39.1,8.358 39.142,4.34 L39.142,4.2 L40.892,4.2 C40.864,7.924 40.822,10.108 40.738,10.766 C40.626,11.438 40.262,11.788 39.618,11.788 C39.254,11.788 38.834,11.76 38.344,11.718 L38.666,12.894 C39.212,12.922 39.604,12.95 39.828,12.95 C41.116,12.95 41.83,12.404 41.984,11.34 C42.124,10.276 42.194,7.462 42.194,2.912 L39.142,2.912 L39.142,0.224 L37.826,0.224 Z" id="形状"></path>
                <path d="M49.872,0.196 L49.872,1.68 C49.858,2.086 49.844,2.492 49.816,2.912 L45.77,2.912 L45.77,4.2 L49.704,4.2 C49.536,5.712 49.228,7.028 48.794,8.12 C48.122,9.674 46.876,10.948 45.028,11.956 L45.742,13.076 C47.618,12.152 48.976,10.822 49.816,9.1 C50.418,7.784 50.824,6.146 51.048,4.2 L55.15,4.2 C55.08,7.336 54.926,9.394 54.688,10.36 C54.464,11.27 53.974,11.732 53.232,11.732 C52.714,11.732 52.168,11.718 51.58,11.69 L51.944,12.978 L53.89,12.978 C54.632,12.922 55.164,12.614 55.5,12.04 C55.836,11.438 56.074,10.388 56.214,8.89 C56.354,7.364 56.438,5.376 56.494,2.912 L51.16,2.912 C51.188,2.506 51.202,2.1 51.216,1.68 L51.216,0.196 L49.872,0.196 Z" id="路径"></path>
                <polygon id="路径" points="65.53 2.408 65.53 10.92 59.93 10.92 59.93 12.208 72.46 12.208 72.46 10.92 66.874 10.92 66.874 2.408 71.578 2.408 71.578 1.134 60.84 1.134 60.84 2.408"></polygon>
                <path d="M79.004,0.266 L79.004,11.27 L74.944,11.27 L74.944,12.572 L87.432,12.572 L87.432,11.27 L83.344,11.27 L83.344,0.266 L82.014,0.266 L82.014,11.27 L80.334,11.27 L80.334,0.266 L79.004,0.266 Z M85.962,2.87 C85.374,5.39 84.674,7.476 83.89,9.1 L85.08,9.52 C85.92,7.714 86.606,5.614 87.138,3.206 L85.962,2.87 Z M76.358,2.842 L75.224,3.206 C75.952,5.25 76.568,7.378 77.044,9.576 L78.262,9.268 C77.702,6.86 77.072,4.718 76.358,2.842 Z" id="形状"></path>
                <path d="M95.81,0.098 L94.27,0.35 C94.746,1.008 95.166,1.722 95.53,2.492 L90.91,2.492 L90.91,3.794 L99.688,3.794 C98.204,6.23 96.09,8.176 93.332,9.632 C93.304,9.604 93.262,9.59 93.22,9.576 C93.066,9.492 92.898,9.45 92.716,9.45 C91.876,9.45 90.98,10.388 90.028,12.292 L91.092,13.034 C91.848,11.564 92.38,10.836 92.688,10.836 C92.884,10.836 93.122,10.99 93.416,11.298 C94.2,12.194 95.348,12.642 96.874,12.67 C97.406,12.684 98.302,12.698 99.548,12.698 L102.096,12.698 L102.418,11.382 C101.102,11.438 100.08,11.466 99.338,11.466 C98.12,11.466 97.182,11.452 96.524,11.424 C95.684,11.354 94.97,11.046 94.382,10.486 C97.42,8.862 99.73,6.524 101.326,3.5 L101.326,2.492 L96.986,2.492 C96.608,1.596 96.216,0.798 95.81,0.098 Z" id="路径"></path>
                <path d="M110.628,0.098 L110.628,2.044 L107.464,2.044 L107.464,0.532 L106.19,0.532 L106.19,3.164 L116.242,3.164 L116.242,0.532 L114.968,0.532 L114.968,2.044 L111.916,2.044 L111.916,0.098 L110.628,0.098 Z M105.294,4.116 L105.294,5.096 L107.632,5.096 C107.59,5.264 107.548,5.46 107.506,5.656 L105.784,5.656 L105.784,10.234 L105.014,10.234 L105.014,11.186 L106.848,11.186 C106.302,11.606 105.644,11.998 104.86,12.334 L105.532,13.202 C106.428,12.768 107.184,12.264 107.8,11.69 L107.24,11.186 L109.004,11.186 L108.612,11.76 C109.312,12.096 109.998,12.558 110.656,13.16 L111.244,12.236 C110.726,11.844 110.152,11.494 109.536,11.186 L111.44,11.186 L111.44,10.234 L110.754,10.234 L110.754,5.656 L108.71,5.656 C108.766,5.474 108.808,5.292 108.85,5.096 L111.09,5.096 L111.09,4.116 L109.018,4.116 C109.046,3.92 109.06,3.738 109.088,3.542 L107.884,3.402 L107.8,4.116 L105.294,4.116 Z M106.862,10.234 L106.862,9.8 L109.676,9.8 L109.676,10.234 L106.862,10.234 Z M106.862,9.114 L106.862,8.708 L109.676,8.708 L109.676,9.114 L106.862,9.114 Z M106.862,8.036 L106.862,7.616 L109.676,7.616 L109.676,8.036 L106.862,8.036 Z M106.862,6.93 L106.862,6.468 L109.676,6.468 L109.676,6.93 L106.862,6.93 Z M111.538,4.046 L111.538,5.124 L113.792,5.124 C113.764,5.362 113.722,5.6 113.666,5.852 L111.818,5.852 L111.818,10.808 L112.91,10.808 L112.91,6.832 L115.738,6.832 L115.738,10.808 L116.83,10.808 L116.83,5.852 L114.828,5.852 C114.884,5.628 114.926,5.376 114.982,5.124 L117.138,5.124 L117.138,4.046 L111.538,4.046 Z M115.304,10.794 L114.548,11.508 C115.5,12.096 116.228,12.656 116.76,13.16 L117.572,12.334 C116.956,11.83 116.2,11.312 115.304,10.794 Z M113.806,7.266 L113.806,9.058 C113.764,9.842 113.582,10.486 113.274,10.99 C112.938,11.438 112.308,11.83 111.398,12.138 L112.028,13.132 C113.008,12.796 113.722,12.32 114.17,11.704 C114.618,11.032 114.856,10.15 114.898,9.058 L114.898,7.266 L113.806,7.266 Z" id="形状"></path>
                <path d="M121.876,9.632 C121.54,9.632 121.274,9.716 121.078,9.912 C120.868,10.108 120.77,10.36 120.77,10.682 C120.77,10.976 120.868,11.228 121.064,11.424 C121.26,11.62 121.498,11.718 121.792,11.718 C121.932,11.718 122.044,11.704 122.128,11.676 C122.128,12.012 122.016,12.334 121.778,12.656 C121.526,12.964 121.204,13.174 120.826,13.314 L120.826,14.182 C121.526,13.986 122.086,13.622 122.506,13.09 C122.926,12.558 123.136,11.942 123.136,11.228 C123.136,10.752 123.01,10.374 122.786,10.066 C122.534,9.772 122.24,9.632 121.876,9.632 Z" id="路径"></path>
                <path d="M147.488,7.63 L146.382,7.812 L146.382,0.21 L145.038,0.21 L145.038,8.022 L140.628,8.736 L140.824,10.024 L145.038,9.352 L145.038,13.034 L146.382,13.034 L146.382,9.128 L147.698,8.918 L147.488,7.63 Z M142.182,0.924 L141.244,1.834 C142.294,2.562 143.106,3.234 143.694,3.878 L144.604,2.954 C143.946,2.282 143.134,1.596 142.182,0.924 Z M141.762,4.144 L140.824,5.054 C141.888,5.838 142.7,6.552 143.288,7.21 L144.24,6.272 C143.568,5.558 142.742,4.844 141.762,4.144 Z M135.028,3.822 L135.028,5.096 L137.058,5.096 C136.54,6.51 135.714,7.77 134.594,8.89 L135.182,10.374 C136.022,9.366 136.694,8.232 137.212,7 L137.212,13.034 L138.556,13.034 L138.556,6.916 C138.976,7.364 139.48,7.966 140.082,8.708 L140.824,7.574 C140.054,6.846 139.298,6.202 138.556,5.642 L138.556,5.096 L140.348,5.096 L140.348,3.822 L138.556,3.822 L138.556,1.862 C139.172,1.75 139.774,1.61 140.348,1.456 L139.886,0.21 C138.458,0.63 136.848,0.91 135.042,1.05 L135.294,2.296 C135.938,2.24 136.582,2.156 137.212,2.072 L137.212,3.822 L135.028,3.822 Z" id="形状"></path>
                <path d="M151.428,12.922 C152.324,12.922 152.772,12.446 152.772,11.522 L152.772,7.672 C153.248,7.448 153.71,7.224 154.172,6.972 L154.172,5.67 C153.71,5.922 153.248,6.16 152.772,6.384 L152.772,3.892 L154.144,3.892 L154.144,2.618 L152.772,2.618 L152.772,0.168 L151.484,0.168 L151.484,2.618 L149.902,2.618 L149.902,3.892 L151.484,3.892 L151.484,6.916 C150.868,7.14 150.252,7.322 149.622,7.462 L149.958,8.778 C150.462,8.61 150.98,8.414 151.484,8.218 L151.484,11.186 C151.484,11.564 151.316,11.76 150.98,11.76 C150.658,11.76 150.322,11.732 149.958,11.676 L150.238,12.922 L151.428,12.922 Z M154.536,2.072 L154.536,3.346 L157.812,3.346 L157.812,5.348 L154.816,5.348 L154.816,6.594 L155.544,6.594 C155.922,7.966 156.65,9.184 157.742,10.276 C156.776,11.004 155.586,11.578 154.186,12.026 L154.816,13.132 C156.328,12.6 157.616,11.928 158.68,11.102 C159.604,11.83 160.738,12.502 162.082,13.09 L162.768,11.998 C161.522,11.508 160.458,10.934 159.59,10.29 C160.654,9.24 161.396,7.98 161.844,6.524 L161.844,5.348 L159.1,5.348 L159.1,3.346 L162.376,3.346 L162.376,2.072 L159.1,2.072 L159.1,0.196 L157.812,0.196 L157.812,2.072 L154.536,2.072 Z M156.79,6.594 L160.542,6.594 C160.122,7.7 159.492,8.666 158.652,9.506 C157.742,8.652 157.126,7.686 156.79,6.594 Z" id="形状"></path>
                <path d="M169.998,5.768 L169.998,8.008 C169.998,8.316 169.83,8.484 169.508,8.484 C169.116,8.484 168.668,8.456 168.15,8.4 L168.472,9.646 C168.962,9.674 169.48,9.688 170.026,9.688 C170.866,9.632 171.286,9.226 171.3,8.456 L171.3,4.592 L166.4,4.592 C167.324,3.598 168.136,2.562 168.864,1.484 C169.676,2.338 170.67,3.57 171.874,5.166 L172.742,4.256 C171.65,2.856 170.474,1.512 169.242,0.224 L168.262,0.224 C167.156,1.876 165.938,3.318 164.608,4.536 L165.392,5.614 L166.064,4.942 L166.064,11.592 C166.064,12.432 166.498,12.852 167.38,12.852 L170.782,12.852 C171.454,12.852 171.916,12.74 172.14,12.516 C172.392,12.264 172.56,11.522 172.672,10.304 L171.426,9.884 C171.37,10.598 171.286,11.074 171.174,11.298 C171.076,11.508 170.81,11.62 170.39,11.62 L167.954,11.62 C167.576,11.62 167.394,11.438 167.394,11.102 L167.394,5.768 L169.998,5.768 Z M173.372,1.386 L173.372,10.024 L174.674,10.024 L174.674,1.386 L173.372,1.386 Z M175.794,12.95 C176.704,12.95 177.166,12.46 177.166,11.48 L177.166,0.196 L175.836,0.196 L175.836,11.144 C175.836,11.55 175.668,11.76 175.332,11.76 C174.716,11.76 174.058,11.732 173.372,11.676 L173.68,12.95 L175.794,12.95 Z" id="形状"></path>
                <path d="M191.69,0.266 C190.318,0.798 188.778,1.092 187.056,1.12 L187.056,7.168 C187,9.254 186.566,10.878 185.768,12.054 L186.706,13.062 C187.728,11.592 188.274,9.632 188.344,7.168 L188.344,5.754 L190.024,5.754 L190.024,13.09 L191.326,13.09 L191.326,5.754 L192.67,5.754 L192.67,4.48 L188.344,4.48 L188.344,2.212 C189.8,2.114 191.13,1.862 192.334,1.442 L191.69,0.266 Z M180,1.26 L180,2.492 L186.398,2.492 L186.398,1.26 L183.808,1.26 C183.64,0.798 183.458,0.378 183.29,0 L181.918,0.224 C182.128,0.546 182.324,0.896 182.492,1.26 L180,1.26 Z M179.86,4.438 L179.86,5.656 L182.576,5.656 L182.576,6.916 L180.084,6.916 L180.084,8.12 L182.576,8.12 L182.576,11.564 C182.576,11.844 182.408,11.984 182.072,11.984 C181.89,11.984 181.694,11.956 181.484,11.9 L181.778,13.132 L182.506,13.132 C183.43,13.132 183.892,12.712 183.892,11.872 L183.892,8.12 L186.244,8.12 L186.244,6.916 L183.892,6.916 L183.892,5.656 L186.482,5.656 L186.482,4.438 L185.054,4.438 C185.264,4.018 185.46,3.556 185.628,3.038 L184.438,2.618 C184.27,3.248 184.074,3.85 183.85,4.438 L182.52,4.438 C182.324,3.738 182.1,3.136 181.876,2.632 L180.714,3.066 C180.952,3.486 181.162,3.948 181.344,4.438 L179.86,4.438 Z M180.924,8.736 C180.672,9.884 180.238,10.976 179.622,11.984 L180.714,12.684 C181.33,11.634 181.792,10.402 182.128,8.988 L180.924,8.736 Z M185.306,8.638 L184.214,8.932 C184.55,9.772 184.83,10.626 185.054,11.494 L186.174,11.074 C185.964,10.346 185.67,9.534 185.306,8.638 Z" id="形状"></path>
                <path d="M200.81,0.098 L199.27,0.35 C199.746,1.008 200.166,1.722 200.53,2.492 L195.91,2.492 L195.91,3.794 L204.688,3.794 C203.204,6.23 201.09,8.176 198.332,9.632 C198.304,9.604 198.262,9.59 198.22,9.576 C198.066,9.492 197.898,9.45 197.716,9.45 C196.876,9.45 195.98,10.388 195.028,12.292 L196.092,13.034 C196.848,11.564 197.38,10.836 197.688,10.836 C197.884,10.836 198.122,10.99 198.416,11.298 C199.2,12.194 200.348,12.642 201.874,12.67 C202.406,12.684 203.302,12.698 204.548,12.698 L207.096,12.698 L207.418,11.382 C206.102,11.438 205.08,11.466 204.338,11.466 C203.12,11.466 202.182,11.452 201.524,11.424 C200.684,11.354 199.97,11.046 199.382,10.486 C202.42,8.862 204.73,6.524 206.326,3.5 L206.326,2.492 L201.986,2.492 C201.608,1.596 201.216,0.798 200.81,0.098 Z" id="路径"></path>
                <path d="M210.49,1.47 L210.49,2.674 L215.516,2.674 L215.516,3.738 L211.274,3.738 L211.274,4.886 L215.516,4.886 L215.516,5.964 L210.028,5.964 L210.028,7.196 L222.348,7.196 L222.348,5.964 L216.86,5.964 L216.86,4.886 L221.144,4.886 L221.144,3.738 L216.86,3.738 L216.86,2.674 L221.886,2.674 L221.886,1.47 L218.974,1.47 C219.184,1.078 219.352,0.672 219.478,0.238 L218.05,0.056 C217.938,0.546 217.77,1.022 217.56,1.47 L214.858,1.47 C214.676,0.966 214.494,0.504 214.298,0.098 L212.898,0.322 C213.122,0.672 213.318,1.05 213.5,1.47 L210.49,1.47 Z M215.614,7.462 C215.558,7.77 215.488,8.078 215.39,8.386 L210.35,8.386 L210.35,9.646 L214.704,9.646 C214.508,9.898 214.284,10.122 214.004,10.346 C213.122,11.018 211.68,11.522 209.692,11.872 L210.238,13.174 C212.562,12.698 214.172,12.054 215.096,11.242 C215.516,10.864 215.866,10.43 216.16,9.926 C217.098,11.48 219.058,12.544 222.054,13.132 L222.754,11.872 C220.15,11.48 218.372,10.738 217.42,9.646 L222.04,9.646 L222.04,8.386 L216.79,8.386 C216.86,8.134 216.916,7.868 216.958,7.602 L215.614,7.462 Z" id="形状"></path>
                <path d="M226.82,1.638 L227.142,8.806 L228.248,8.806 L228.57,1.638 L226.82,1.638 Z M227.688,9.632 C227.408,9.632 227.17,9.716 226.974,9.912 C226.764,10.094 226.666,10.332 226.666,10.626 C226.666,10.906 226.764,11.144 226.974,11.34 C227.17,11.536 227.408,11.634 227.688,11.634 C227.968,11.634 228.22,11.536 228.43,11.354 C228.626,11.158 228.724,10.92 228.724,10.626 C228.724,10.332 228.626,10.094 228.43,9.912 C228.234,9.716 227.982,9.632 227.688,9.632 Z" id="形状"></path>
            </g>
            <line x1="113.933307" y1="1.41618978" x2="113.933307" y2="61.9161898" id="直线-6" stroke="url(#linearGradient-1)" stroke-width="2" stroke-linecap="round"></line>
        </g>
    </g>
</svg>