<?xml version="1.0" encoding="utf-8"?>
<!-- Generator: Adobe Illustrator 27.0.0, SVG Export Plug-In . SVG Version: 6.00 Build 0)  -->
<svg version="1.1" id="图层_1" xmlns="http://www.w3.org/2000/svg" xmlns:xlink="http://www.w3.org/1999/xlink" x="0px" y="0px"
	 viewBox="0 0 181.4 45.4" style="enable-background:new 0 0 181.4 45.4;" xml:space="preserve">
<style type="text/css">
	.st0{fill:#848484;}
	.st1{fill-rule:evenodd;clip-rule:evenodd;fill:#E6212A;}
	.st2{fill-rule:evenodd;clip-rule:evenodd;fill:#FFFFFF;}
</style>
<path id="形状" class="st0" d="M60.5,37.8h3v0.8h-6.4v-0.8l-0.7,0.6L56,38.8l-0.6-0.6c0.1-0.1,0.2-0.1,0.2-0.2c0-0.1,0-0.2,0-0.4
	v-3.3h-1.2v-0.9h2.2v3.9l1.1-1l0.4,0.9c-0.2,0.1-0.4,0.3-0.9,0.7h2.3v-7.6l1,0v2.7H63v0.8h-2.5V37.8z M56.5,32.8
	c-0.1-0.2-0.4-0.6-0.7-1c-0.3-0.4-0.6-0.7-0.8-0.9l0.7-0.5c0.2,0.2,0.5,0.5,0.8,0.8c0.3,0.4,0.6,0.7,0.8,0.9L56.5,32.8z"/>
<path id="形状_00000019646827198212622220000012977265232290002362_" class="st0" d="M68.6,31.8v1.1h-0.9v-1.8h3.6
	c-0.1-0.4-0.2-0.7-0.3-0.8l1-0.2l0.4,1h3.5v1.9h-0.9v-1.1H68.6z M76.4,35.3l-0.2,0.8c-1.8-0.2-3.3-0.6-4.5-1
	c-1.3,0.5-2.8,0.9-4.5,1.1L67,35.4c1.3-0.1,2.5-0.4,3.7-0.8c-0.5-0.2-0.9-0.5-1.3-0.8c-0.4,0.3-0.8,0.6-1.3,0.9L67.5,34
	c0.5-0.3,1-0.6,1.5-1c0.5-0.4,0.9-0.8,1.2-1.1l0.8,0.4c0,0-0.1,0.1-0.3,0.3h4.2v0.7c-0.6,0.5-1.3,0.9-2.1,1.3
	C73.8,34.9,75,35.2,76.4,35.3z M70,33.4c0.5,0.3,1,0.7,1.7,0.9c0.7-0.3,1.3-0.6,1.8-0.9H70z M69.6,38.9h-0.9V36h6.2v2.9H74v-0.4
	h-4.4V38.9z M74,37.9v-1.1h-4.4v1.1H74z"/>
<path id="形状_00000080913696398857549090000010422639194760031616_" class="st0" d="M88.1,31.3V35h-6.3c0,0.8-0.2,1.5-0.4,2.1
	c-0.2,0.6-0.5,1.2-1,1.9l-0.9-0.5c0.4-0.5,0.7-0.9,0.9-1.3c0.2-0.4,0.3-0.8,0.4-1.3s0.1-1.1,0.1-1.9v-2.7h3.2
	c-0.1-0.4-0.3-0.8-0.4-1l1-0.2c0.2,0.4,0.3,0.8,0.5,1.2H88.1z M81.8,34.1h5.3v-2.1h-5.3V34.1L81.8,34.1z"/>
<path id="形状_00000102505063682191163960000011569960459378136245_" class="st0" d="M94.5,32.2c-0.2-0.2-0.5-0.4-0.9-0.7
	c-0.4-0.3-0.7-0.5-0.9-0.7l0.5-0.7c0.2,0.2,0.6,0.4,0.9,0.6c0.4,0.3,0.7,0.5,0.9,0.7L94.5,32.2z M94.7,33.1c0.3-0.2,0.6-0.4,0.7-0.5
	c0.1-0.2,0.2-0.3,0.3-0.5c0.1-0.2,0.1-0.4,0.1-0.7v-1h3.8v1.7c0,0.2,0,0.3,0.1,0.4c0.1,0.1,0.2,0.1,0.4,0.1h0.9l-0.1,0.8h-1.1
	c-0.4,0-0.7-0.1-0.9-0.2c-0.2-0.1-0.3-0.4-0.3-0.7v-1.3h-1.9v0.5c0,0.3-0.1,0.7-0.3,1.1c-0.2,0.4-0.6,0.7-1,1L94.7,33.1z M93.9,34.5
	c-0.2-0.2-0.6-0.5-1-0.8c-0.4-0.3-0.7-0.5-1-0.7l0.5-0.7c0.3,0.2,0.6,0.4,1,0.7c0.4,0.3,0.7,0.5,0.9,0.7L93.9,34.5z M100.7,38.8
	c-1.3-0.5-2.3-0.9-3.1-1.4c-0.9,0.5-2,1-3.3,1.5l-0.5-0.8c1.2-0.4,2.2-0.8,3-1.2c-0.6-0.6-1.2-1.3-1.6-2.1h-0.5v-0.8h5.4v0.8
	c-0.4,0.8-1,1.5-1.8,2.2c0.7,0.4,1.6,0.8,2.8,1.1L100.7,38.8z M96.3,34.7c0.3,0.6,0.8,1.2,1.4,1.6c0.7-0.5,1.2-1.1,1.5-1.6H96.3z
	 M94.5,35.5c-0.1,0.2-0.3,0.8-0.7,1.6c-0.4,0.8-0.6,1.3-0.8,1.5l-0.9-0.4c0.1-0.2,0.4-0.7,0.8-1.5c0.4-0.8,0.6-1.4,0.7-1.6
	L94.5,35.5z"/>
<path id="形状_00000177445235606456221470000002689222236333264044_" class="st0" d="M113.8,32h-5.4c-0.1,0.3-0.3,0.6-0.6,0.9h4.8
	v4.9c0,0.3,0,0.5-0.1,0.6s-0.2,0.3-0.4,0.3c-0.2,0.1-0.4,0.1-0.8,0.1l-0.8,0.1l-0.3-0.8l0.7-0.1c0.2,0,0.4,0,0.4-0.1
	c0.1,0,0.1-0.1,0.2-0.1c0-0.1,0-0.2,0-0.3v-0.4h-4.3v1.8h-0.9v-4.4c-0.4,0.4-0.9,0.8-1.4,1.2l-0.6-0.7c1.2-0.9,2.2-1.9,2.9-3H105
	v-0.8h2.9c0.2-0.4,0.4-0.8,0.5-1.1l1,0.2c-0.2,0.4-0.3,0.7-0.4,0.9h4.9V32z M107.4,34.6h4.3v-0.9h-4.3V34.6z M107.4,35.4v0.9h4.3
	v-0.9H107.4z"/>
<path id="形状_00000178183399000645524760000003951926792054217403_" class="st0" d="M126.3,37.5v0.8H122v0.6h-0.9v-5.2
	c-0.1,0.2-0.3,0.5-0.5,0.8l-0.5-0.7c-0.1,0.5-0.3,0.9-0.4,1.3c0.5,1,0.9,1.8,1.3,2.6l-0.8,0.5c-0.3-0.7-0.6-1.3-0.9-2
	c-0.4,0.8-0.9,1.6-1.5,2.5l-0.8-0.6c0.7-1,1.3-2,1.7-3c-0.5-1-0.9-1.8-1.3-2.3l0.7-0.4c0.2,0.4,0.6,0.9,0.9,1.6
	c0.2-0.7,0.4-1.4,0.5-2.2h-2V31h3v0.9c-0.1,0.6-0.2,1.2-0.3,1.7c0.7-1,1.2-2.1,1.5-3.4l0.9,0.2c-0.1,0.4-0.3,0.9-0.5,1.4h1.6
	c-0.2-0.5-0.3-1-0.4-1.3l0.8-0.1c0.1,0.3,0.3,0.8,0.5,1.4h1.5v0.8h-1.7v1.2h1.6v0.8h-1.6v1.2h1.6v0.8h-1.6v1.3H126.3z M122,33.6h1.5
	v-1.2H122V33.6z M122,35.5h1.5v-1.2H122V35.5z M123.5,36.3H122v1.3h1.5V36.3z"/>
<path id="形状_00000163790338812728851810000007720786778401136540_" class="st0" d="M133.9,34.5h-1.6v-0.8h2.7v-1.3h-1.3
	c-0.2,0.4-0.3,0.8-0.5,1.1l-0.9-0.3c0.5-0.8,0.8-1.7,1-2.6l0.9,0.2c-0.1,0.3-0.2,0.6-0.3,0.9h1v-1.5l0.9,0v1.4h2.2v0.8h-2.2v1.3h2.6
	v0.8h-1.9v1.6c0,0.2,0,0.3,0.1,0.4s0.2,0.1,0.3,0.1h0.4c0.2,0,0.3,0,0.3-0.1c0.1-0.1,0.1-0.2,0.1-0.4c0-0.2,0.1-0.5,0.1-0.7l0.8,0.3
	c0,0.2,0,0.4-0.1,0.7c0,0.3-0.1,0.5-0.2,0.6s-0.2,0.2-0.3,0.3c-0.1,0.1-0.4,0.1-0.6,0.1h-0.8c-0.2,0-0.4,0-0.6-0.1
	c-0.1-0.1-0.2-0.2-0.3-0.3c-0.1-0.2-0.1-0.4-0.1-0.6v-1.8h-0.9v0c0,0.5,0,0.9-0.1,1.2c-0.1,0.3-0.3,0.6-0.5,0.9
	c-0.3,0.3-0.6,0.6-1.1,0.9l-0.6-0.7c0.4-0.3,0.8-0.5,1-0.7c0.2-0.2,0.3-0.4,0.4-0.7S133.9,34.9,133.9,34.5L133.9,34.5z M131.4,32.7
	c-0.2-0.3-0.4-0.6-0.6-0.9c-0.3-0.4-0.5-0.6-0.7-0.9l0.7-0.5c0.2,0.2,0.4,0.5,0.7,0.8c0.3,0.3,0.5,0.6,0.7,0.9L131.4,32.7z
	 M135.8,37.9c0.9,0,2,0,3.1-0.1l-0.2,0.8c-1.2,0-2.3,0.1-3.3,0.1l-0.9,0c-0.6,0-1.1,0-1.4-0.1s-0.7-0.2-1-0.3
	c-0.3-0.2-0.6-0.4-0.8-0.7c-0.4,0.5-0.9,0.9-1.2,1.2l-0.6-0.7l1.4-1.3v-2.6h-1.1v-0.9h2v3.5c0.3,0.3,0.5,0.5,0.8,0.7
	c0.2,0.2,0.5,0.3,0.8,0.3c0.3,0.1,0.7,0.1,1.2,0.1C134.9,37.9,135.2,37.9,135.8,37.9z"/>
<path id="形状_00000023278518254317891840000015254642712413787564_" class="st0" d="M150.3,31.6c0,0.6,0,1.7-0.1,3.2
	c0,1.5-0.1,2.4-0.1,2.8c0,0.3-0.1,0.5-0.2,0.7c-0.1,0.2-0.2,0.3-0.4,0.4c-0.2,0.1-0.5,0.1-0.9,0.2l-0.9,0.1l-0.3-0.9l0.9-0.1
	c0.2,0,0.4,0,0.5-0.1c0.1,0,0.2-0.1,0.2-0.2s0.1-0.3,0.1-0.5c0-0.6,0-1.4,0.1-2.4c0-1,0-1.7,0.1-2.3h-2.2c-0.2,0.4-0.4,0.9-0.7,1.3
	l-0.8-0.5v5.5H142v-7h1.1c0.2-0.4,0.3-1,0.5-1.6l1,0.2c-0.1,0.5-0.3,1-0.4,1.4h1.6v1.5c0.3-0.5,0.6-1,0.8-1.6
	c0.3-0.6,0.4-1.1,0.6-1.6l0.9,0.2c-0.1,0.5-0.3,0.9-0.5,1.4H150.3z M144.8,34.7v-2.1h-1.9v2.1H144.8z M147.8,36.5
	c-0.2-0.4-0.4-0.7-0.6-1.1c-0.2-0.4-0.5-0.7-0.7-1l0.7-0.5c0.2,0.3,0.5,0.6,0.8,1c0.3,0.4,0.5,0.7,0.7,1.1L147.8,36.5z M142.9,35.6
	v2.3h1.9v-2.3H142.9z"/>
<path id="形状_00000142171113090963055170000002081763774621873340_" class="st0" d="M158.4,35.5c-0.3-0.4-0.6-0.8-1-1.2v4.6h-0.9
	v-4.5c-0.4,0.8-0.9,1.6-1.4,2.3l-0.6-0.7c0.3-0.4,0.7-0.9,1-1.5c0.3-0.6,0.6-1.2,0.9-1.7H155v-0.9h1.4v-1.8l0.9,0v1.7h1.3v0.9h-1.3
	v0.9l0.3-0.3c0.2,0.2,0.4,0.4,0.7,0.7c0.3,0.3,0.5,0.6,0.7,0.8L158.4,35.5z M163.9,31.9v0.9h-1.3v4.8c0,0.3,0,0.6-0.1,0.7
	c-0.1,0.2-0.2,0.3-0.4,0.4c-0.2,0.1-0.5,0.1-0.9,0.2l-0.7,0l-0.3-0.9l0.8,0c0.2,0,0.4,0,0.5-0.1c0.1,0,0.2-0.1,0.2-0.2
	c0-0.1,0.1-0.2,0.1-0.4v-3.5c-0.8,1.5-1.9,2.8-3.3,3.9l-0.7-0.7c1.5-1.2,2.7-2.6,3.6-4.2h-2.2v-0.9h2.7v-1.8l1,0v1.8H163.9z"/>
<path id="形状_00000013888795368312270120000000407608688874117301_" class="st0" d="M176.5,35.2l0.1,0.9l-1.5,0.2v2.5h-0.9v-2.4
	l-2.6,0.3l-0.1-0.9l2.7-0.3v-5.5l0.9,0v5.3L176.5,35.2z M170.1,34.9c0.2,0.2,0.5,0.4,0.7,0.7c0.3,0.3,0.5,0.5,0.6,0.7l-0.6,0.6
	c-0.1-0.2-0.3-0.4-0.4-0.6c-0.2-0.2-0.4-0.4-0.5-0.6v3.1H169v-3.2c-0.3,0.6-0.8,1.2-1.4,2l-0.5-0.8c0.4-0.4,0.7-0.8,1-1.3
	c0.3-0.5,0.6-0.9,0.8-1.3h-1.5v-0.8h1.6v-3.4l0.9,0v3.3h1.4v0.8h-1.4v0.8L170.1,34.9z M173.4,32.9c-0.2-0.2-0.5-0.5-0.8-0.8
	c-0.3-0.3-0.6-0.5-0.9-0.7l0.5-0.6c0.2,0.2,0.5,0.4,0.9,0.7c0.3,0.3,0.6,0.5,0.8,0.8L173.4,32.9z M171.5,31
	c-0.1,0.3-0.3,0.7-0.4,1.1c-0.2,0.4-0.3,0.7-0.5,1l-0.7-0.3c0.1-0.2,0.3-0.6,0.4-1c0.2-0.4,0.3-0.8,0.4-1.1L171.5,31z M168.1,33.1
	c-0.1-0.3-0.2-0.6-0.3-1c-0.2-0.4-0.3-0.8-0.4-1l0.8-0.3c0.1,0.3,0.3,0.6,0.4,1c0.2,0.4,0.3,0.7,0.3,1L168.1,33.1z M172,33.1
	c0.2,0.2,0.5,0.4,0.9,0.7c0.4,0.3,0.7,0.5,0.9,0.8l-0.6,0.7c-0.2-0.2-0.5-0.5-0.9-0.8c-0.4-0.3-0.7-0.5-0.9-0.7L172,33.1z"/>
<g>
	<path id="矩形" class="st1" d="M13,1.2h19c6.6,0,12,5.4,12,12v19c0,6.6-5.4,12-12,12H13c-6.6,0-12-5.4-12-12v-19
		C1,6.5,6.4,1.2,13,1.2z"/>
	<g id="编组" transform="translate(7.928569, 14.750000)">
		<path id="Fill-3" class="st2" d="M20.5,10.5h5.6V9.8h-5.6V10.5z M18.5,8.3v3.9h9.6V8.3c0-0.1-0.1-0.2-0.2-0.2h-9.2
			C18.6,8.1,18.5,8.2,18.5,8.3L18.5,8.3z"/>
		<path id="Fill-5" class="st2" d="M28.1,4.9h-3.6v0.7h0v0h3.4c0.1,0,0.2,0.1,0.2,0.2v1.5h-9.6V5.9c0-0.1,0.1-0.2,0.2-0.2h3.8V4.9v0
			h-0.1l-2,0l-1.4,0c-0.3,0-0.6-0.3-0.6-0.6v-2c0-0.1,0.1-0.2,0.2-0.2h1.6c0.1,0,0.2,0.1,0.2,0.2v0.9h2V2.3c0-0.1,0.1-0.2,0.2-0.2
			h1.6c0.1,0,0.2,0.1,0.2,0.2v0.9h0v0h3.4c0.1,0,0.2,0.1,0.2,0.2V4.9z"/>
		<path id="Fill-6" class="st2" d="M8.2,12.2V13h5c0.1,0,0.2,0.1,0.2,0.2v1.5H1v-1.5C1,13.1,1.1,13,1.2,13h5v-0.7H1v-1.5
			c0-0.1,0.1-0.2,0.2-0.2h5V9.7c0-0.1,0.1-0.2,0.2-0.2H8c0.1,0,0.2,0.1,0.2,0.2v0.8h5c0.1,0,0.2,0.1,0.2,0.2v1.5H8.2z"/>
		<path id="Fill-7" class="st2" d="M5.2,7h0.5V5.6c0-0.1,0.1-0.2,0.2-0.2h1.3c0.1,0,0.2,0.1,0.2,0.2v3.1H5.2L4.8,9.4
			c0,0.1-0.1,0.1-0.2,0.1H2.7l0.4-0.8H1V5.6c0-0.1,0.1-0.2,0.2-0.2h1.3c0.1,0,0.2,0.1,0.2,0.2V7h0.5V5.4V4.6H1V3.1
			C1,3,1.1,2.9,1.2,2.9h0.4V2.3c0-0.1,0.1-0.2,0.2-0.2H3c0.1,0,0.2,0.1,0.2,0.2v0.6h1.9V2.3c0-0.1,0.1-0.2,0.2-0.2h1.2
			c0.1,0,0.2,0.1,0.2,0.2v0.6h0.4c0.1,0,0.2,0.1,0.2,0.2v1.5H5.2V7z"/>
		<path id="Fill-8" class="st2" d="M17.7,2.2v1h-1h0c-0.1,0-0.2,0-0.3,0c-0.4-0.1-0.7-0.5-0.7-0.9s0.3-0.8,0.7-0.9
			c0.1,0,0.2,0,0.3,0h0c0.1,0,0.2,0,0.3,0C17.4,1.3,17.7,1.7,17.7,2.2"/>
		<path id="Fill-9" class="st2" d="M11.7,5.1H9.5V4.5c0-0.3,0.3-0.6,0.6-0.6h1.4c0.1,0,0.2,0.1,0.2,0.2V5.1z M10.2,2.1
			c-0.2,0-0.5,0-0.7,0.1c-1,0.3-1.7,1.2-1.7,2.3v4c0,0.1,0.1,0.2,0.2,0.2h1.5V6.8h2.2v1.9h1.5c0.1,0,0.2-0.1,0.2-0.2V2.3
			c0-0.1-0.1-0.2-0.2-0.2H10.2z"/>
		<path id="Fill-10" class="st2" d="M18.7,13h9.2c0.1,0,0.2,0.1,0.2,0.2v1.5h-9.6v-1.5C18.5,13.1,18.6,13,18.7,13"/>
		<path id="Fill-16" class="st2" d="M17.7,14.7h-2V4c0-0.1,0.1-0.2,0.2-0.2h1.6c0.1,0,0.2,0.1,0.2,0.2V14.7z"/>
	</g>
</g>
<g>
	<path d="M62,17.5c-0.3-0.6-0.8-1.4-1.4-2.2v8.3h-2.4v-7.1c-0.5,1.1-1.2,2.1-1.8,3l-1.4-1.9c0.6-0.8,1.2-1.7,1.7-2.6
		c0.6-1,1-1.9,1.5-3h-2.4V9.5h2.5v-3l2.4,0.1v2.9h2.1v2.4h-2.1v1.6l0.6-0.5c0.3,0.3,0.7,0.8,1.2,1.3c0.5,0.6,0.8,1.1,1.1,1.5
		L62,17.5z M72.3,9.6V12h-2v8.9c0,0.6-0.1,1.1-0.3,1.4c-0.2,0.3-0.5,0.6-0.8,0.7c-0.4,0.1-1,0.3-1.7,0.3l-1.4,0.1l-0.7-2.3l1.4-0.2
		c0.4,0,0.6-0.1,0.7-0.1c0.1-0.1,0.2-0.1,0.3-0.3c0.1-0.1,0.1-0.3,0.1-0.6v-5.3c-1.5,2.6-3.3,4.7-5.5,6.5l-1.5-1.9
		c2.7-2.1,4.8-4.6,6.2-7.4h-3.7V9.6h4.5V6.6l2.4,0.1v3H72.3z"/>
	<path d="M93.1,18.6l-2.5,0.3v4.6h-2.2v-4.3l-4.5,0.6l-0.1-1.3L82.5,20c-0.4-0.5-0.8-1-1.3-1.6v5.2H79v-5c-0.5,0.9-1.2,1.8-2,2.8
		l-1.5-1.9c0.5-0.6,1.1-1.3,1.6-2.1c0.5-0.8,1-1.5,1.4-2.2h-2.2v-2.2H79v-1.1l-1.5,0.7c-0.2-0.5-0.4-1.2-0.7-2
		c-0.3-0.8-0.5-1.4-0.7-1.8L77.9,8c0.4,0.8,0.7,1.7,1.1,2.8v-4l2.2,0.1v4.3c0.5-1.1,0.9-2.2,1.1-3.1l1.8,0.7
		c-0.2,0.5-0.4,1.2-0.7,1.9c-0.3,0.8-0.6,1.4-0.8,1.9l-1.4-0.6v1h2.3v2.2h-2.3v1.4l0.6-0.6c0.7,0.7,1.4,1.4,2,2.2l0-0.7l4.7-0.6
		v-6.2l-1.2,1.7c-0.4-0.4-0.8-0.9-1.5-1.4c-0.6-0.6-1.1-1-1.6-1.4l1.4-1.7c0.8,0.7,1.8,1.5,2.9,2.5V6.6l2.2,0.1v9.8l2.3-0.3
		L93.1,18.6z M86.8,16.7c-0.4-0.4-0.9-0.9-1.6-1.5c-0.7-0.6-1.2-1-1.6-1.3l1.4-1.8c1.4,1.1,2.4,2,3.2,2.7L86.8,16.7z"/>
	<path d="M105,15.5h6.5v7.8H99.2v-7.2L98,16.7l-1.2-2c0.9-0.3,1.7-0.7,2.2-1.1c0.6-0.4,1-0.8,1.3-1.2h-3v-1.8h0.9l-1.1-0.8
		c0.5-0.5,0.9-1.1,1.2-1.8c0.4-0.6,0.6-1.3,0.9-1.8l2,0.4c0,0.1-0.2,0.5-0.4,1.1h4.6v1.8h-2.4v0.9v0.2h2.7v1.8h-2.6l0.4,0.2
		c1.1,0.6,1.9,1,2.4,1.3L105,15.5z M101,10.5v-0.1v-1h-1c-0.2,0.3-0.4,0.6-0.7,1.1H101z M100.3,15.5h4.4c-0.7-0.5-1.5-1-2.5-1.6
		C101.8,14.5,101.2,15,100.3,15.5z M101.6,18.5h7.5v-1.1h-7.5V18.5z M101.6,20.3v1.1h7.5v-1.1H101.6z M106.3,14.6V7.5h6.8v7.1H106.3
		z M108.5,12.6h2.5V9.5h-2.5V12.6z"/>
	<path d="M127.1,12.7v-1.4l-1.7,1.4c-0.1-0.2-0.3-0.5-0.5-0.8c-1.1,0-2.6,0.1-4.6,0.3c-0.7,0.1-1.3,0.1-1.6,0.2l-0.5-2.2
		c0.2,0,0.3-0.1,0.4-0.2c0.1-0.1,0.2-0.2,0.3-0.2c0.3-0.3,0.7-0.7,1.2-1.5c0.5-0.7,0.9-1.4,1.2-2l2.1,1c-1,1.5-1.8,2.5-2.5,3.1
		l2.3-0.1l0.5,0c-0.4-0.5-0.7-0.9-1-1.2l1.6-1.3c0.4,0.4,0.8,1,1.4,1.6c0.5,0.7,1,1.3,1.3,1.8V6.6l2.2,0.1v2.2
		c0.7-0.3,1.4-0.6,2.1-0.9c0.7-0.3,1.3-0.6,1.7-0.9l1,1.9c-0.5,0.2-1.2,0.5-2.1,0.9c-0.9,0.4-1.8,0.7-2.7,1v1c0,0.3,0,0.5,0.1,0.6
		c0.1,0.1,0.3,0.1,0.6,0.2h1.5c0.4,0,0.6-0.1,0.8-0.2c0.1-0.1,0.2-0.3,0.3-0.6c0.1-0.3,0.1-0.6,0.2-1l1.9,0.7
		c-0.1,0.4-0.1,0.8-0.2,1.1c-0.1,0.7-0.4,1.2-0.7,1.5c-0.3,0.3-0.8,0.4-1.5,0.5c-0.7,0-1.3,0-1.6,0c-0.4,0-0.9,0-1.7,0
		c-0.6,0-1-0.2-1.3-0.5C127.2,14,127.1,13.4,127.1,12.7z M118.7,23.6V13h7.4v8.5c0,0.5-0.1,1-0.2,1.2c-0.1,0.3-0.3,0.5-0.6,0.6
		c-0.3,0.1-0.7,0.2-1.3,0.3l-0.9,0.1l-0.6-2l1-0.1c0.2,0,0.4-0.1,0.5-0.2s0.2-0.3,0.2-0.7v-0.5h-3.4v3.4H118.7z M124.1,15.9v-1h-3.3
		v1H124.1z M120.8,17.6v1h3.4l0-1H120.8z M134.6,19.8c0,0.2-0.1,0.7-0.2,1.5c-0.1,0.7-0.4,1.2-0.7,1.5c-0.4,0.3-0.9,0.4-1.6,0.5
		c-0.5,0-1,0.1-1.5,0.1c-0.6,0-1.1,0-1.7-0.1c-0.6,0-1.1-0.2-1.4-0.5c-0.3-0.3-0.4-0.8-0.4-1.5v-6l2.2,0.1v2c1.9-0.8,3.2-1.5,4-2
		l1.1,1.8c-0.5,0.3-1.3,0.7-2.2,1.1c-1,0.4-1.9,0.8-2.9,1.2v1c0,0.3,0.1,0.5,0.2,0.6c0.1,0.1,0.3,0.2,0.6,0.2h1.3
		c0.4,0,0.7-0.1,0.9-0.2c0.2-0.1,0.3-0.3,0.3-0.7c0.1-0.4,0.1-0.8,0.2-1.3L134.6,19.8z"/>
	<path d="M154.7,9.5l-0.1,2.3c-0.1,4-0.2,7.1-0.3,9.2c0,0.8-0.2,1.3-0.6,1.7c-0.3,0.3-0.9,0.5-1.7,0.6l-1.8,0.2l-0.7-2.3l1.6-0.2
		c0.3,0,0.5-0.1,0.6-0.3c0.1-0.2,0.2-0.5,0.2-1c0.1-0.9,0.1-2,0.2-3.4c0-1.3,0.1-2.5,0.1-3.7l0-0.9h-1.7c0,0.1,0,0.2,0,0.4
		c-0.1,2-0.2,3.5-0.3,4.7c-0.2,1.2-0.5,2.4-1.1,3.6c-0.6,1.2-1.5,2.3-2.8,3.4l-1.6-1.6c0.5-0.4,0.9-0.9,1.3-1.3
		c-1.2,0.2-2.5,0.5-4,0.8c-1.5,0.3-2.6,0.5-3.4,0.6l-0.3-2.5c0.2,0,0.7-0.1,1.3-0.2V7.2h6.6v11.4c0.1,0,0.2,0,0.3-0.1
		c0.1,0,0.3,0,0.4-0.1l0.1,1c0.5-0.9,0.8-1.8,0.9-2.8c0.2-1,0.3-2.5,0.3-4.3l0-0.6h-1.4V9.5h1.4l0-3l2.3,0.1c0,0.8,0,1.8,0,2.9
		H154.7z M144,11.3V9.5h-2.2v1.8H144z M141.8,15.1h2.2v-1.7h-2.2V15.1z M144,17.3h-2.2v2.2l2.2-0.3V17.3z"/>
	<path d="M175.8,16.2v2.4H169v2c0,0.8-0.1,1.4-0.2,1.8c-0.1,0.4-0.4,0.7-0.7,0.9c-0.3,0.2-0.8,0.3-1.5,0.4l-1.6,0.2l-0.8-2.4
		l1.4-0.2c0.3,0,0.5-0.1,0.6-0.2c0.1-0.1,0.2-0.2,0.3-0.4c0.1-0.2,0.1-0.6,0.1-1v-1.1h-7v-2.4h7v-1.9h-5.6v-2.4h5.6v-2
		c-2.2,0.1-4.2,0.2-5.9,0.2l-0.2-2.3c2,0,4.4-0.1,7.1-0.3c2.7-0.2,5-0.5,6.7-0.8l0.3,2.4c-1.5,0.2-3.4,0.4-5.5,0.6v2.2h5.3v2.4H169
		v1.9H175.8z"/>
</g>
</svg>
